<?xml version="1.0" encoding="utf-8"?>
<!-- Generator: Adobe Illustrator 24.0.0, SVG Export Plug-In . SVG Version: 6.00 Build 0)  -->
<svg version="1.1" id="Layer_1" xmlns="http://www.w3.org/2000/svg" xmlns:xlink="http://www.w3.org/1999/xlink" x="0px" y="0px"
	 viewBox="0 0 512 512" style="enable-background:new 0 0 512 512;" xml:space="preserve">
<style type="text/css">
	.st0{fill:none;}
	.st1{fill:#2062AF;}
	.st2{fill:#3C9CD7;}
	.st3{fill:#FFFFFF;}
	.st4{fill:url(#SVGID_1_);}
	.st5{fill:url(#SVGID_2_);}
	.st6{fill:url(#SVGID_3_);}
	.st7{opacity:5.000000e-02;enable-background:new    ;}
	.st8{fill:url(#SVGID_4_);}
</style>
<title>ic_css</title>
<path class="st0" d="M40.8,3h429.3v510H40.8L40.8,3z"/>
<path class="st1" d="M433.9,460.4L259.5,510L85.1,460.4L44.8,0h429.3L433.9,460.4z"/>
<path class="st2" d="M255.5,38.3v410.2l0.4,0.1l141.1-38l32.6-372.3H255.5z"/>
<path class="st3" d="M255.3,147.3l-124.8,52l4.1,51.5l120.7-51.6l128.4-54.9l5.3-52.7L255.3,147.3z"/>
<linearGradient id="SVGID_1_" gradientUnits="userSpaceOnUse" x1="-1034.7043" y1="1433.4362" x2="-1034.7043" y2="1455.7327" gradientTransform="matrix(4.64 0 0 -4.64 4993.96 6903.5801)">
	<stop  offset="0.39" style="stop-color:#D1D3D4;stop-opacity:0"/>
	<stop  offset="1" style="stop-color:#D1D3D4"/>
</linearGradient>
<path class="st4" d="M130.5,199.3l4.1,51.5l120.7-51.6v-51.9L130.5,199.3z"/>
<linearGradient id="SVGID_2_" gradientUnits="userSpaceOnUse" x1="-1006.8444" y1="1444.5527" x2="-1006.8444" y2="1467.7316" gradientTransform="matrix(4.64 0 0 -4.64 4993.96 6903.5801)">
	<stop  offset="0.39" style="stop-color:#D1D3D4;stop-opacity:0"/>
	<stop  offset="1" style="stop-color:#D1D3D4"/>
</linearGradient>
<path class="st5" d="M389.1,91.6l-133.7,55.7v51.9l128.4-54.9L389.1,91.6z"/>
<linearGradient id="SVGID_3_" gradientUnits="userSpaceOnUse" x1="-1047.7042" y1="1423.844" x2="-994.1569" y2="1423.844" gradientTransform="matrix(4.64 0 0 -4.64 4993.96 6903.5801)">
	<stop  offset="0" style="stop-color:#E8E7E5"/>
	<stop  offset="1" style="stop-color:#FFFFFF"/>
</linearGradient>
<path class="st6" d="M130.7,199.3l4.1,51.5l185.2,0.6l-4.1,68.6l-60.9,17.2l-58.6-14.8l-3.6-42.6h-54.4l7.1,82.2l110,32.5l109.5-32
	l14.2-163.3L130.7,199.3z"/>
<path class="st7" d="M255.3,199.3H130.5l4.1,51.5l120.7,0.4V199.3z M255.3,337l-0.6,0.2l-58.6-14.8l-3.5-42.6h-54.4l7.1,82.2
	l110,32.5V337z"/>
<linearGradient id="SVGID_4_" gradientUnits="userSpaceOnUse" x1="-1050.1646" y1="1462.4153" x2="-992.021" y2="1462.4153" gradientTransform="matrix(4.64 0 0 -4.64 4993.96 6903.5801)">
	<stop  offset="0" style="stop-color:#E8E7E5"/>
	<stop  offset="1" style="stop-color:#FFFFFF"/>
</linearGradient>
<path class="st8" d="M119.3,91.6h269.8l-5.3,52.7H125.8L119.3,91.6z"/>
<path class="st7" d="M255.3,91.6H119.3l6.5,52.7h129.6V91.6z"/>
</svg>
