<svg width="260" height="42" viewBox="0 0 260 42" fill="none" xmlns="http://www.w3.org/2000/svg">
    <path d="M30.4114 26.8694C29.1081 26.0624 27.4037 26.2641 26.3009 27.2729C24.2958 29.0885 21.5888 29.9964 18.6814 29.6938C14.2701 29.1894 10.6608 25.558 10.1595 21.0189C9.45773 15.0675 14.0695 10.0239 19.8845 10.0239C21.5888 10.0239 23.0927 10.4274 24.4963 11.2344C27.2032 12.6466 30.4114 12.6466 32.9179 11.0326L36.1261 8.71261C32.2161 2.8621 25.2983 -0.769248 17.5785 0.138589C8.55541 1.04643 1.13639 8.41 0.133825 17.5893C-0.567974 23.7424 1.53742 29.3911 5.34719 33.426C4.44488 36.2504 2.84076 40.5878 1.33691 42C4.94616 41.5965 10.0593 40.2852 13.468 38.6713C15.4731 39.3774 17.5785 39.68 19.8845 39.68C26.8022 39.68 32.9179 36.0486 36.4269 30.6016L30.4114 26.8694Z" fill="#FFCC00"/>
    <path d="M124.753 15.3701C122.648 15.3701 120.743 16.0762 119.239 17.5892C117.735 19.1023 116.933 20.918 116.933 23.0363C116.933 25.2554 117.635 27.172 119.139 28.5842C120.643 30.0972 122.447 30.8033 124.653 30.8033C126.859 30.8033 128.663 30.0972 130.268 28.5842C131.771 27.0711 132.573 25.2554 132.573 23.0363C132.573 20.918 131.771 19.0014 130.368 17.4884C128.764 16.0762 126.959 15.3701 124.753 15.3701ZM127.661 26.1633C126.959 26.9702 125.956 27.3737 124.753 27.3737C123.55 27.3737 122.648 26.9702 121.846 26.1633C121.144 25.3563 120.743 24.3476 120.743 22.9354C120.743 21.7249 121.144 20.6154 121.846 19.9093C122.548 19.1023 123.55 18.6988 124.653 18.6988C125.856 18.6988 126.759 19.1023 127.561 19.9093C128.262 20.7162 128.663 21.725 128.663 23.0363C128.663 24.3476 128.363 25.4572 127.661 26.1633Z" fill="#FFCC00"/>
    <path d="M146.208 16.7823C145.005 15.6727 143.601 15.0675 141.997 15.0675C139.992 15.0675 138.388 15.7736 137.085 17.2866C135.781 18.6988 135.08 20.6154 135.08 22.7337C135.08 24.9528 135.781 26.8694 137.085 28.2816C138.388 29.7946 140.092 30.5007 142.098 30.5007C143.501 30.5007 144.905 29.9964 146.208 28.8868V30.1981H149.918V15.471H146.208V16.7823ZM145.306 25.9615C144.604 26.7685 143.702 27.172 142.599 27.172C141.496 27.172 140.694 26.7685 139.992 25.9615C139.29 25.1546 138.99 24.045 138.99 22.8345C138.99 21.6241 139.391 20.6154 139.992 19.8084C140.694 19.0014 141.596 18.598 142.599 18.598C143.702 18.598 144.604 19.0014 145.306 19.8084C146.008 20.6154 146.409 21.725 146.409 22.9354C146.409 24.1459 146.008 25.1546 145.306 25.9615Z" fill="#FFCC00"/>
    <path d="M179.193 15.3701C177.89 15.3701 176.687 15.7736 175.584 16.6814V10.2257H171.874V30.3998H175.584V23.3389C175.584 21.6241 175.784 20.4136 176.185 19.8084C176.586 19.2032 177.288 18.9006 178.391 18.9006C179.193 18.9006 179.795 19.1023 180.095 19.6067C180.496 20.111 180.597 20.8171 180.597 21.9267V30.6016H184.306V21.6241C184.306 19.6067 183.905 18.0936 183.003 17.1858C182.201 15.8744 180.797 15.3701 179.193 15.3701Z" fill="#FFCC00"/>
    <path d="M190.622 25.1546C190.021 25.1546 189.519 25.3563 189.018 25.8607C188.617 26.2641 188.316 26.8694 188.316 27.4746C188.316 28.0798 188.517 28.685 188.918 29.0885C189.319 29.492 189.92 29.6938 190.522 29.6938C191.123 29.6938 191.725 29.492 192.126 29.0885C192.527 28.685 192.828 28.0798 192.828 27.4746C192.828 26.8694 192.627 26.365 192.126 25.8607C191.825 25.3563 191.224 25.1546 190.622 25.1546Z" fill="#FFCC00"/>
    <path d="M225.01 15.3701C222.905 15.3701 221 16.0762 219.496 17.5892C217.992 19.1023 217.19 20.918 217.19 23.0363C217.19 25.2554 217.892 27.172 219.396 28.5842C220.9 30.0972 222.705 30.8033 224.91 30.8033C227.116 30.8033 228.92 30.0972 230.525 28.5842C232.028 27.0711 232.831 25.2554 232.831 23.0363C232.831 20.918 232.028 19.0014 230.625 17.4884C229.021 16.0762 227.216 15.3701 225.01 15.3701ZM227.918 26.1633C227.216 26.9702 226.214 27.3737 225.01 27.3737C223.807 27.3737 222.905 26.9702 222.103 26.1633C221.401 25.3563 221 24.3476 221 22.9354C221 21.7249 221.401 20.6154 222.103 19.9093C222.805 19.1023 223.807 18.6988 224.91 18.6988C226.113 18.6988 227.016 19.1023 227.818 19.9093C228.519 20.7162 228.92 21.725 228.92 23.0363C228.92 24.3476 228.62 25.4572 227.918 26.1633Z" fill="#FFCC00"/>
    <path d="M253.183 21.9261L259.599 15.6721H254.586L250.275 19.9087V10.1242H246.566V30.3992H250.275V24.7505L250.576 24.5487L255.088 30.3992H260L253.183 21.9261Z" fill="#FFCC00"/>
    <path d="M65.5015 10.73L61.0902 23.7424L56.9797 10.73H53.2702L49.9617 30.299H53.4707L55.4758 17.5892L59.1853 30.299H62.9951L66.8048 17.6901L68.6095 30.299H72.1185L69.1108 10.73H65.5015Z" fill="#FFCC00"/>
    <path d="M81.8432 23.5406L77.7327 15.6727H73.4216L79.8381 27.4746L75.527 35.6451H79.7378L89.964 15.6727H85.7532L81.8432 23.5406Z" fill="#FFCC00"/>
    <path d="M209.47 23.3389L207.165 15.6727H204.157L201.851 23.3389L198.643 15.6727H194.733L200.347 30.3998H203.154L205.661 21.5232L208.067 30.3998H210.974L216.589 15.6727H212.679L209.47 23.3389Z" fill="#FFCC00"/>
    <path d="M242.355 15.3701C241.653 15.3701 241.051 15.471 240.55 15.7736C240.149 15.9753 239.748 16.2779 239.347 16.6814V15.7736H235.637V30.3998H239.347V22.8345C239.347 21.6241 239.447 20.111 240.45 19.4049C240.751 19.2032 241.051 19.1023 241.452 19.0014C241.553 19.0014 241.753 19.0014 241.954 19.0014C242.254 19.0014 242.455 19.0014 242.655 19.1023L242.856 19.2032L243.859 15.6727L243.658 15.5718C243.357 15.3701 242.655 15.3701 242.355 15.3701Z" fill="#FFCC00"/>
    <path d="M111.519 23.7424C110.316 25.7598 108.211 26.9702 105.905 26.9702C102.296 26.9702 99.3884 24.045 99.3884 20.4136C99.3884 16.7823 102.296 13.857 105.905 13.857C108.111 13.857 110.116 14.9666 111.319 16.7823L113.825 13.857C111.921 11.4361 109.013 10.0239 105.905 10.0239C100.19 10.0239 95.5786 14.664 95.5786 20.4136C95.5786 26.1633 100.19 30.8033 105.905 30.8033C109.214 30.8033 112.322 29.1894 114.226 26.4659L111.519 23.7424Z" fill="#FFCC00"/>
    <path d="M165.057 25.0537C164.255 26.5668 162.851 27.3737 161.247 27.3737C158.841 27.3737 156.936 25.4572 156.936 23.0363C156.936 20.6154 158.841 18.6988 161.247 18.6988C162.751 18.6988 164.054 19.5058 164.856 20.7162L164.956 20.918L167.262 18.2953C165.859 16.3788 163.653 15.3701 161.247 15.3701C157.036 15.3701 153.527 18.7997 153.527 23.1371C153.527 27.3737 156.936 30.9042 161.247 30.9042C163.753 30.9042 166.059 29.6937 167.563 27.5755L165.057 25.0537Z" fill="#FFCC00"/>
</svg>
