<svg xmlns="http://www.w3.org/2000/svg" viewBox="0 0 265.27 32.64"><defs><style>.cls-1{fill:#494b4d;}</style></defs><title>Asset 1</title><g id="Layer_2" data-name="Layer 2"><g id="Layer_1-2" data-name="Layer 1"><path class="cls-1" d="M59.39,1.34V7h-6V24H46.27V7h-6V1.34ZM74.12,5.82A6,6,0,0,1,79,7.9a8.48,8.48,0,0,1,1.76,5.64V24H73.64V14.43a2.79,2.79,0,0,0-.71-2,2.25,2.25,0,0,0-1.82-.77,2.32,2.32,0,0,0-1.86.77,2.9,2.9,0,0,0-.67,2V24h-7.1V.32h7.1V8.7a6.59,6.59,0,0,1,2.21-2.08A6.67,6.67,0,0,1,74.12,5.82Zm27.3,9a10.4,10.4,0,0,1-.09,1.4H89.9c.11,1.56.76,2.34,2,2.34a1.72,1.72,0,0,0,1.66-1.06H101A7.9,7.9,0,0,1,99.41,21a8.8,8.8,0,0,1-3.11,2.4,9.49,9.49,0,0,1-4.09.86,10.06,10.06,0,0,1-4.8-1.12,8.06,8.06,0,0,1-3.27-3.2A10.19,10.19,0,0,1,83,15a10.05,10.05,0,0,1,1.15-4.9,8,8,0,0,1,3.27-3.23,10.06,10.06,0,0,1,4.8-1.12A9.88,9.88,0,0,1,97,6.85,7.75,7.75,0,0,1,100.24,10,9.51,9.51,0,0,1,101.42,14.82Zm-7.2-1.7a1.58,1.58,0,0,0-.57-1.34,2.2,2.2,0,0,0-1.44-.48A2,2,0,0,0,90,13.12ZM102.87,15a9.94,9.94,0,0,1,1.15-4.9,8,8,0,0,1,3.27-3.23,10,10,0,0,1,4.8-1.12,9,9,0,0,1,5.92,2,8.88,8.88,0,0,1,3.07,5.51h-7.52a1.66,1.66,0,0,0-1.63-1.41,1.55,1.55,0,0,0-1.38.8,4.67,4.67,0,0,0-.48,2.37,4.65,4.65,0,0,0,.48,2.36,1.55,1.55,0,0,0,1.38.8,1.66,1.66,0,0,0,1.63-1.4h7.52a8.89,8.89,0,0,1-3.07,5.5,9,9,0,0,1-5.92,2,10,10,0,0,1-4.8-1.12A8.06,8.06,0,0,1,104,19.9,10.08,10.08,0,0,1,102.87,15Zm29.2,9.24a10.5,10.5,0,0,1-4.9-1.12,8.31,8.31,0,0,1-3.42-3.2A9.58,9.58,0,0,1,122.53,15a9.45,9.45,0,0,1,1.22-4.9,8.25,8.25,0,0,1,3.42-3.23,11.26,11.26,0,0,1,9.79,0,8.06,8.06,0,0,1,3.39,3.23A9.28,9.28,0,0,1,141.6,15a9.4,9.4,0,0,1-1.25,4.92A8.11,8.11,0,0,1,137,23.1,10.48,10.48,0,0,1,132.07,24.22Zm0-6.14a2.13,2.13,0,0,0,1.66-.77A3.52,3.52,0,0,0,134.4,15a3.41,3.41,0,0,0-.67-2.31,2.13,2.13,0,0,0-3.33,0,3.41,3.41,0,0,0-.67,2.31,3.63,3.63,0,0,0,.64,2.33A2.17,2.17,0,0,0,132.07,18.08Zm36-12.26a6.86,6.86,0,0,1,5.34,2.08,8,8,0,0,1,1.92,5.64V24h-7.07V14.43a2.29,2.29,0,0,0-.7-1.79,2.86,2.86,0,0,0-3.68,0,2.35,2.35,0,0,0-.67,1.79V24h-7.08V14.43a2.29,2.29,0,0,0-.7-1.79,2.46,2.46,0,0,0-1.82-.67,2.51,2.51,0,0,0-1.86.67,2.35,2.35,0,0,0-.67,1.79V24H144V6h7.11V8.38a5.67,5.67,0,0,1,2.08-1.85,6.63,6.63,0,0,1,3.13-.71,6.76,6.76,0,0,1,3.46.87,6.21,6.21,0,0,1,2.4,2.37,7.91,7.91,0,0,1,2.53-2.31A6.4,6.4,0,0,1,168.09,5.82Zm17.61,2.6a4.71,4.71,0,0,1,1.92-2,6,6,0,0,1,3-.73,6.73,6.73,0,0,1,3.81,1.12,7.2,7.2,0,0,1,2.66,3.2,11.35,11.35,0,0,1,1,4.93,11.62,11.62,0,0,1-1,5,7.54,7.54,0,0,1-2.66,3.2,6.94,6.94,0,0,1-3.81,1.08,6.17,6.17,0,0,1-3-.7,4.94,4.94,0,0,1-1.92-2v11.1h-7.11V6h7.11ZM190.91,15a3.18,3.18,0,0,0-.73-2.24,2.46,2.46,0,0,0-1.89-.8,2.43,2.43,0,0,0-1.89.8,3.18,3.18,0,0,0-.74,2.24,3.2,3.2,0,0,0,.74,2.24,2.46,2.46,0,0,0,1.89.8,2.49,2.49,0,0,0,1.89-.8A3.2,3.2,0,0,0,190.91,15Zm8.63,0a11.66,11.66,0,0,1,1-4.93,7.39,7.39,0,0,1,2.69-3.2A6.73,6.73,0,0,1,207,5.73a6,6,0,0,1,3,.73,4.78,4.78,0,0,1,2,2V6h7.07V24H212V21.54a5,5,0,0,1-2,2,6.23,6.23,0,0,1-3,.7,6.94,6.94,0,0,1-3.81-1.08,7.75,7.75,0,0,1-2.69-3.2A11.93,11.93,0,0,1,199.54,15ZM212,15a3.18,3.18,0,0,0-.74-2.24,2.62,2.62,0,0,0-3.77,0,3.18,3.18,0,0,0-.74,2.24,3.2,3.2,0,0,0,.74,2.24,2.62,2.62,0,0,0,3.77,0A3.2,3.2,0,0,0,212,15Zm23.06-9.16a6,6,0,0,1,4.83,2.08,8.43,8.43,0,0,1,1.76,5.64V24h-7.07V14.43a2.78,2.78,0,0,0-.7-2,2.58,2.58,0,0,0-3.68,0,2.86,2.86,0,0,0-.68,2V24h-7.1V6h7.1V8.7a6.29,6.29,0,0,1,5.54-2.88ZM265.27,6,253.72,32.64h-7.78l4.54-9.54L243,6h7.91l3.39,9.15L257.43,6Z"/><path class="cls-1" d="M29,21.64l-1.39-5.15L23.23,1a1.4,1.4,0,0,0-.64-.81A1.43,1.43,0,0,0,21.54,0L16.2,1.38a1.32,1.32,0,0,0-.46-.32,1.3,1.3,0,0,0-.55-.12H1.38a1.41,1.41,0,0,0-1,.39,1.35,1.35,0,0,0-.4.95V23.66a1.35,1.35,0,0,0,.4.95,1.41,1.41,0,0,0,1,.39H15.19a1.41,1.41,0,0,0,1-.39,1.35,1.35,0,0,0,.4-.95V13l3,11a1.34,1.34,0,0,0,.51.73A1.48,1.48,0,0,0,21,25a2.16,2.16,0,0,0,.36,0L28,23.22a1.38,1.38,0,0,0,.84-.63A1.41,1.41,0,0,0,29,21.64Zm-22.1.74H2.72V19.71H6.86Zm0-5.35H2.72V9H6.86Zm0-10.69H2.72V3.67H6.86Zm6.91,16H9.62V19.71h4.15Zm0-5.35H9.62V9h4.15Zm0-10.69H9.62V3.67h4.15ZM16.87,4l4-1,.72,2.58-4,1Zm3.58,12.92L18.31,9.17l4-1,2.14,7.75Zm1.38,5.16-.72-2.58,4-1.05L25.83,21Z"/></g></g></svg>