<?xml version="1.0"?>
<svg xmlns="http://www.w3.org/2000/svg" height="512px" viewBox="0 -22 433.46838 433" width="512px"><g><path d="m285.394531 196.875 70.496094-68.714844-97.421875-14.15625c-2.605469-.375-4.855469-2.011718-6.023438-4.375l-43.566406-88.273437-43.566406 88.273437c-1.164062 2.363282-3.417969 4-6.023438 4.375l-97.421874 14.15625 70.496093 68.714844c1.882813 1.839844 2.742188 4.488281 2.296875 7.082031l-16.636718 97.027344 87.132812-45.808594c2.332031-1.226562 5.113281-1.226562 7.445312 0l87.132813 45.808594-16.640625-97.023437c-.445312-2.597657.414062-5.246094 2.300781-7.085938zm0 0" data-original="#000000" class="active-path" data-old_color="#000000" fill="#F8D63F"/><path d="m81.109375 5.691406c-3.121094 3.125-3.121094 8.191406 0 11.3125l32.5625 32.5625c2.011719 2.058594 4.976563 2.875 7.757813 2.140625 2.785156-.734375 4.960937-2.910156 5.695312-5.695312.734375-2.78125-.082031-5.746094-2.140625-7.761719l-32.558594-32.558594c-3.125-3.121094-8.191406-3.121094-11.316406 0zm0 0" data-original="#000000" class="active-path" data-old_color="#000000" fill="#F8D63F"/><path d="m322.144531 52.957031c-2.042969 2.015625-2.847656 4.972657-2.109375 7.746094.734375 2.773437 2.902344 4.9375 5.675782 5.675781 2.773437.738282 5.726562-.066406 7.746093-2.109375l50.410157-50.414062c3.09375-3.128907 3.078124-8.167969-.03125-11.277344-3.109376-3.113281-8.148438-3.128906-11.28125-.035156zm0 0" data-original="#000000" class="active-path" data-old_color="#000000" fill="#F8D63F"/><path d="m70.273438 231.246094-66.164063 36.839844c-3.863281 2.148437-5.25 7.019531-3.097656 10.878906 2.148437 3.863281 7.019531 5.25 10.878906 3.097656l66.167969-36.839844c3.859375-2.148437 5.246094-7.023437 3.097656-10.882812-2.152344-3.859375-7.023438-5.246094-10.882812-3.097656zm0 0" data-original="#000000" class="active-path" data-old_color="#000000" fill="#F8D63F"/><path d="m429.335938 264.921875-77.199219-42.535156c-2.507813-1.414063-5.578125-1.371094-8.042969.109375-2.464844 1.480468-3.949219 4.167968-3.882812 7.042968.066406 2.875 1.671874 5.496094 4.203124 6.859376l77.191407 42.535156c3.871093 2.132812 8.738281.722656 10.871093-3.144532 2.128907-3.871093.722657-8.738281-3.148437-10.871093zm0 0" data-original="#000000" class="active-path" data-old_color="#000000" fill="#F8D63F"/><path d="m214.734375 302.167969c-4.417969 0-8 3.582031-8 8v71c0 4.421875 3.582031 8 8 8 4.421875 0 8-3.578125 8-8v-71c0-4.417969-3.578125-8-8-8zm0 0" data-original="#000000" class="active-path" data-old_color="#000000" fill="#F8D63F"/></g> </svg>
