<?xml version="1.0" encoding="utf-8"?>
<!-- Generator: Adobe Illustrator 23.1.0, SVG Export Plug-In . SVG Version: 6.00 Build 0)  -->
<svg version="1.1" id="Layer_1" xmlns="http://www.w3.org/2000/svg" xmlns:xlink="http://www.w3.org/1999/xlink" x="0px" y="0px"
	 viewBox="0 0 160 49" style="enable-background:new 0 0 160 49;" xml:space="preserve">
<style type="text/css">
	.st0{fill:#F37321;}
	.st1{fill:#FFFFFF;}
</style>
<polygon class="st0" points="8.5,16.5 13.3,16.5 18.9,28.6 25.6,16.5 29.3,16.5 18.9,39 "/>
<polygon class="st0" points="21.9,39.7 32.4,16.7 41,34 49.5,16.7 60.7,39.6 56.8,39.6 49.7,26.9 43.2,39.6 39.3,39.6 32.2,27.1 
	26.1,39.6 "/>
<path class="st0" d="M69.9,16.6c-6.4,0-11.6,5.2-11.6,11.5c0,6.4,5.2,11.5,11.6,11.5s11.6-5.2,11.6-11.5
	C81.5,21.7,76.3,16.6,69.9,16.6z M65.7,35.4c-8.3-2.6,0.9-11.8,0.9-11.8s8.4-7,10.6,1.1C79.4,32.7,74,37.9,65.7,35.4z"/>
<path class="st1" d="M101.7,8.8v11c-2.1-1.8-4.8-3-7.7-3c-6.4,0-11.6,5.2-11.6,11.5c0,6.4,5.2,11.5,11.6,11.5c3,0,5.7-1.1,7.7-3v3
	h4.9V8.8H101.7z M89.7,35.6c-8.3-2.6,0.9-11.8,0.9-11.8s8.4-7,10.6,1.1C103.4,32.9,98,38.2,89.7,35.6z"/>
<polygon class="st1" points="129.8,16.5 140.4,39.9 150.4,16.5 146.6,16.5 140.1,29.5 134.4,16.5 "/>
<path class="st1" d="M127.3,25.8c0,1.3-1.2,2.4-2.7,2.4c-1.5,0-2.7-1.1-2.7-2.4c0-1.3,1.2-2.4,2.7-2.4
	C126.1,23.5,127.3,24.5,127.3,25.8z"/>
<path class="st1" d="M120.5,37.3c-4.9-0.1-8.8-4-8.8-8.9c0-4.9,4-8.9,9-8.9c4.9,0,8.8,3.8,8.9,8.6h2.5v0c0-6.5-5.5-11.7-12.2-11.7
	c-6.7,0-12.2,5.2-12.2,11.7c0,6.5,5.5,11.7,12.2,11.7c0.2,0,0.4,0,0.5,0V37.3z"/>
</svg>
