<svg width="319" height="55" viewBox="0 0 319 55" fill="none" xmlns="http://www.w3.org/2000/svg">
<path d="M61.392 16.344V21.976H55.376V39H48.272V21.976H42.32V16.344H61.392ZM76.1188 20.824C78.1881 20.824 79.7988 21.5173 80.9508 22.904C82.1241 24.2907 82.7108 26.168 82.7108 28.536V39H75.6388V29.432C75.6388 28.5787 75.4041 27.9067 74.9348 27.416C74.4868 26.904 73.8788 26.648 73.1108 26.648C72.3214 26.648 71.7028 26.904 71.2548 27.416C70.8068 27.9067 70.5828 28.5787 70.5828 29.432V39H63.4787V15.32H70.5828V23.704C71.1374 22.8507 71.8734 22.1573 72.7908 21.624C73.7294 21.0907 74.8388 20.824 76.1188 20.824ZM103.423 29.816C103.423 30.3067 103.391 30.776 103.327 31.224H91.9033C92.0099 32.7813 92.6606 33.56 93.8553 33.56C94.6233 33.56 95.1779 33.208 95.5192 32.504H103.039C102.783 33.784 102.239 34.936 101.407 35.96C100.597 36.9627 99.5619 37.7627 98.3033 38.36C97.0659 38.936 95.7006 39.224 94.2073 39.224C92.4153 39.224 90.8152 38.8507 89.4072 38.104C88.0206 37.3573 86.9326 36.2907 86.1432 34.904C85.3752 33.496 84.9912 31.8533 84.9912 29.976C84.9912 28.0987 85.3752 26.4667 86.1432 25.08C86.9326 23.672 88.0206 22.5947 89.4072 21.848C90.8152 21.1013 92.4153 20.728 94.2073 20.728C95.9993 20.728 97.5886 21.1013 98.9753 21.848C100.383 22.5733 101.471 23.6187 102.239 24.984C103.029 26.3493 103.423 27.96 103.423 29.816ZM96.2233 28.12C96.2233 27.5227 96.0313 27.0747 95.6473 26.776C95.2633 26.456 94.7833 26.296 94.2073 26.296C92.9486 26.296 92.2126 26.904 91.9992 28.12H96.2233ZM104.87 29.976C104.87 28.0987 105.254 26.4667 106.022 25.08C106.811 23.672 107.899 22.5947 109.286 21.848C110.694 21.1013 112.294 20.728 114.086 20.728C116.433 20.728 118.406 21.3893 120.006 22.712C121.627 24.0347 122.651 25.8693 123.078 28.216H115.558C115.281 27.2773 114.737 26.808 113.926 26.808C113.35 26.808 112.891 27.0747 112.55 27.608C112.23 28.1413 112.07 28.9307 112.07 29.976C112.07 31.0213 112.23 31.8107 112.55 32.344C112.891 32.8773 113.35 33.144 113.926 33.144C114.737 33.144 115.281 32.6747 115.558 31.736H123.078C122.651 34.0827 121.627 35.9173 120.006 37.24C118.406 38.5627 116.433 39.224 114.086 39.224C112.294 39.224 110.694 38.8507 109.286 38.104C107.899 37.3573 106.811 36.2907 106.022 34.904C105.254 33.496 104.87 31.8533 104.87 29.976ZM134.066 39.224C132.253 39.224 130.621 38.8507 129.17 38.104C127.719 37.3573 126.578 36.2907 125.746 34.904C124.935 33.496 124.53 31.8533 124.53 29.976C124.53 28.0987 124.935 26.4667 125.746 25.08C126.578 23.672 127.719 22.5947 129.17 21.848C130.621 21.1013 132.253 20.728 134.066 20.728C135.879 20.728 137.511 21.1013 138.962 21.848C140.413 22.5947 141.543 23.672 142.354 25.08C143.186 26.4667 143.602 28.0987 143.602 29.976C143.602 31.8533 143.186 33.496 142.354 34.904C141.543 36.2907 140.413 37.3573 138.962 38.104C137.511 38.8507 135.879 39.224 134.066 39.224ZM134.066 33.08C134.727 33.08 135.282 32.824 135.73 32.312C136.178 31.7787 136.402 31 136.402 29.976C136.402 28.952 136.178 28.184 135.73 27.672C135.282 27.1387 134.727 26.872 134.066 26.872C133.405 26.872 132.85 27.1387 132.402 27.672C131.954 28.184 131.73 28.952 131.73 29.976C131.73 31 131.943 31.7787 132.37 32.312C132.818 32.824 133.383 33.08 134.066 33.08ZM170.09 20.824C172.394 20.824 174.175 21.5173 175.434 22.904C176.714 24.2907 177.354 26.168 177.354 28.536V39H170.282V29.432C170.282 28.664 170.047 28.0667 169.578 27.64C169.13 27.192 168.522 26.968 167.754 26.968C166.964 26.968 166.346 27.192 165.898 27.64C165.45 28.0667 165.226 28.664 165.226 29.432V39H158.154V29.432C158.154 28.664 157.919 28.0667 157.45 27.64C157.002 27.192 156.394 26.968 155.626 26.968C154.836 26.968 154.218 27.192 153.77 27.64C153.322 28.0667 153.098 28.664 153.098 29.432V39H145.994V20.952H153.098V23.384C153.61 22.616 154.303 21.9973 155.178 21.528C156.074 21.0587 157.119 20.824 158.314 20.824C159.615 20.824 160.767 21.112 161.77 21.688C162.772 22.2427 163.572 23.032 164.17 24.056C164.831 23.1173 165.674 22.3493 166.698 21.752C167.722 21.1333 168.852 20.824 170.09 20.824ZM187.695 23.416C188.143 22.584 188.783 21.9333 189.615 21.464C190.469 20.9733 191.482 20.728 192.655 20.728C194.063 20.728 195.333 21.1013 196.463 21.848C197.594 22.5733 198.479 23.64 199.119 25.048C199.781 26.4347 200.111 28.0773 200.111 29.976C200.111 31.8747 199.781 33.528 199.119 34.936C198.479 36.3227 197.594 37.3893 196.463 38.136C195.333 38.8613 194.063 39.224 192.655 39.224C191.482 39.224 190.469 38.9893 189.615 38.52C188.783 38.0293 188.143 37.368 187.695 36.536V47.64H180.591V20.952H187.695V23.416ZM192.911 29.976C192.911 29.016 192.666 28.2693 192.175 27.736C191.685 27.2027 191.055 26.936 190.287 26.936C189.519 26.936 188.89 27.2027 188.399 27.736C187.909 28.2693 187.663 29.016 187.663 29.976C187.663 30.936 187.909 31.6827 188.399 32.216C188.89 32.7493 189.519 33.016 190.287 33.016C191.055 33.016 191.685 32.7493 192.175 32.216C192.666 31.6827 192.911 30.936 192.911 29.976ZM201.541 29.976C201.541 28.0773 201.861 26.4347 202.501 25.048C203.163 23.64 204.059 22.5733 205.189 21.848C206.32 21.1013 207.589 20.728 208.997 20.728C210.171 20.728 211.184 20.9733 212.037 21.464C212.891 21.9333 213.541 22.584 213.989 23.416V20.952H221.061V39H213.989V36.536C213.541 37.368 212.891 38.0293 212.037 38.52C211.184 38.9893 210.171 39.224 208.997 39.224C207.589 39.224 206.32 38.8613 205.189 38.136C204.059 37.3893 203.163 36.3227 202.501 34.936C201.861 33.528 201.541 31.8747 201.541 29.976ZM213.989 29.976C213.989 29.016 213.744 28.2693 213.253 27.736C212.763 27.2027 212.133 26.936 211.365 26.936C210.597 26.936 209.968 27.2027 209.477 27.736C208.987 28.2693 208.741 29.016 208.741 29.976C208.741 30.936 208.987 31.6827 209.477 32.216C209.968 32.7493 210.597 33.016 211.365 33.016C212.133 33.016 212.763 32.7493 213.253 32.216C213.744 31.6827 213.989 30.936 213.989 29.976ZM237.051 20.824C239.121 20.824 240.731 21.5173 241.883 22.904C243.057 24.2907 243.643 26.168 243.643 28.536V39H236.571V29.432C236.571 28.5787 236.337 27.9067 235.867 27.416C235.419 26.904 234.811 26.648 234.043 26.648C233.254 26.648 232.635 26.904 232.187 27.416C231.739 27.9067 231.515 28.5787 231.515 29.432V39H224.411V20.952H231.515V23.704C232.07 22.8507 232.806 22.1573 233.723 21.624C234.662 21.0907 235.771 20.824 237.051 20.824ZM267.268 20.952L255.716 47.64H247.94L252.484 38.104L244.964 20.952H252.868L256.26 30.104L259.428 20.952H267.268Z" fill="#494B4D"/>
<path d="M30.9555 36.6449L29.5747 31.4852L25.2252 15.9928C25.1312 15.651 24.9011 15.3593 24.5854 15.1814C24.2696 15.0035 23.8939 14.954 23.5406 15.0437L18.1969 16.3804C18.0693 16.2436 17.914 16.1338 17.7405 16.0579C17.567 15.982 17.3792 15.9416 17.1889 15.9393H3.38081C3.01459 15.9393 2.66338 16.0801 2.40443 16.3308C2.14548 16.5815 2 16.9215 2 17.276V38.6633C2 39.0178 2.14548 39.3578 2.40443 39.6085C2.66338 39.8592 3.01459 40 3.38081 40H17.1889C17.5551 40 17.9063 39.8592 18.1652 39.6085C18.4242 39.3578 18.5697 39.0178 18.5697 38.6633V27.9697L21.6075 38.9574C21.6884 39.249 21.8689 39.5055 22.1196 39.6851C22.3704 39.8647 22.6765 39.9569 22.9883 39.9465C23.1075 39.9597 23.228 39.9597 23.3473 39.9465L30.0166 38.2222C30.1929 38.1765 30.3581 38.0975 30.5027 37.9897C30.6473 37.8819 30.7683 37.7473 30.8589 37.5939C31.0045 37.2982 31.0387 36.9625 30.9555 36.6449ZM8.86261 37.3801H4.72019V34.7067H8.86261V37.3801ZM8.86261 32.0332H4.72019V24.013H8.86261V32.0332ZM8.86261 21.3396H4.72019V18.6662H8.86261V21.3396ZM15.7666 37.3801H11.6242V34.7067H15.7666V37.3801ZM15.7666 32.0332H11.6242V24.013H15.7666V32.0332ZM15.7666 21.3396H11.6242V18.6662H15.7666V21.3396ZM18.8735 19.0137L22.8778 17.9711L23.5958 20.5509L19.5915 21.5936L18.8735 19.0137ZM22.4497 31.9263L20.3095 24.1734L24.3138 23.1308L26.4541 30.8837L22.4497 31.9263ZM23.8306 37.086L23.1125 34.5061L27.1169 33.4635L27.8349 36.0434L23.8306 37.086Z" fill="#494B4D"/>
</svg>
