<svg id="Layer_1" data-name="Layer 1" xmlns="http://www.w3.org/2000/svg" xmlns:xlink="http://www.w3.org/1999/xlink" viewBox="0 0 512 512"><defs><style>.cls-1{fill:#fff;}.cls-1,.cls-20,.cls-22{fill-rule:evenodd;}.cls-2{fill:#284a93;}.cls-3{mask:url(#mask);}.cls-4{mask:url(#mask-2);}.cls-5{mask:url(#mask-3);}.cls-6{mask:url(#mask-4);}.cls-7{mask:url(#mask-5);}.cls-8{mask:url(#mask-6);}.cls-9{mask:url(#mask-7);}.cls-10{mask:url(#mask-8);}.cls-11{mask:url(#mask-9);}.cls-12{mask:url(#mask-10);}.cls-13{mask:url(#mask-11);}.cls-14{mask:url(#mask-12);}.cls-15{mask:url(#mask-13);}.cls-16{mask:url(#mask-14);}.cls-17{mask:url(#mask-15);}.cls-18{mask:url(#mask-16);}.cls-19{mask:url(#mask-17);}.cls-20{fill:url(#linear-gradient);}.cls-21{mask:url(#mask-18);}.cls-22{fill:url(#linear-gradient-2);}.cls-23{mask:url(#mask-19);}.cls-24{mask:url(#mask-20);}</style><mask id="mask" x="137.63" y="256.07" width="9.88" height="13.98" maskUnits="userSpaceOnUse"><g id="mask0"><path class="cls-1" d="M145.3,256.47l-7.43,11.33a1.45,1.45,0,0,0,1.17,2.25l7.43-.93a1.33,1.33,0,0,0,1-1.4V257.47a1.37,1.37,0,0,0-1.34-1.4A1.1,1.1,0,0,0,145.3,256.47Z"/></g></mask><mask id="mask-2" x="154.28" y="255.3" width="12" height="11.86" maskUnits="userSpaceOnUse"><g id="mask1"><path class="cls-1" d="M154.28,256.47v.1l.56,9.37a1.19,1.19,0,0,0,1.17,1.22h.22l8.9-.64a1.23,1.23,0,0,0,.76-2.13l-9.38-8.73a1.56,1.56,0,0,0-.95-.35h-.06A1.22,1.22,0,0,0,154.28,256.47Z"/></g></mask><mask id="mask-3" x="137" y="272.6" width="11.73" height="25.35" maskUnits="userSpaceOnUse"><g id="mask2"><path class="cls-1" d="M146.38,272.61l-7.46.59a2.07,2.07,0,0,0-1.92,2.13v20.49a2.1,2.1,0,0,0,2.06,2.14h7.61a2.1,2.1,0,0,0,2.06-2.14l-.07-21a2.16,2.16,0,0,0-2.12-2.21h-.16Z"/></g></mask><mask id="mask-4" x="153.13" y="271.57" width="14.54" height="25.61" maskUnits="userSpaceOnUse"><g id="mask3"><path class="cls-1" d="M165.33,271.57h-.14l-10,1a2.05,2.05,0,0,0-2,2l-.08,20.5a2.18,2.18,0,0,0,2.26,2.09h10a2.17,2.17,0,0,0,2.25-2.09V273.66a2.22,2.22,0,0,0-2.22-2.09Z"/></g></mask><mask id="mask-5" x="356.87" y="229.84" width="14.92" height="18.43" maskUnits="userSpaceOnUse"><g id="mask4"><path class="cls-1" d="M356.87,231.63V245.2a1.8,1.8,0,0,0,1.6,1.79l11.23,1.27a1.85,1.85,0,0,0,2.07-1.6,1.82,1.82,0,0,0-.32-1.3l-11.22-14.83a1.83,1.83,0,0,0-1.44-.69h-.07A1.85,1.85,0,0,0,356.87,231.63Z"/></g></mask><mask id="mask-6" x="332.16" y="229.41" width="17.65" height="17.4" maskUnits="userSpaceOnUse"><g id="mask5"><path class="cls-1" d="M346.7,229.9h0l-14,12.82a1.84,1.84,0,0,0-.07,2.6,1.86,1.86,0,0,0,1.2.57l13.3.9a1.77,1.77,0,0,0,2-1.56s0-.11,0-.17l.67-13.73a1.84,1.84,0,0,0-1.76-1.92H348A1.89,1.89,0,0,0,346.7,229.9Z"/></g></mask><mask id="mask-7" x="356.71" y="253.38" width="16.93" height="34.16" maskUnits="userSpaceOnUse"><g id="mask6"><path class="cls-1" d="M356.86,256.17l-.15,28.38a3,3,0,0,0,3,3h11a2.85,2.85,0,0,0,2.94-2.75s0-.06,0-.09V257a2.91,2.91,0,0,0-2.72-2.84L360,253.4l-.36,0A2.82,2.82,0,0,0,356.86,256.17Z"/></g></mask><mask id="mask-8" x="329.28" y="251.47" width="18.59" height="34.82" maskUnits="userSpaceOnUse"><g id="mask7"><path class="cls-1" d="M329.28,254.28V283.5a2.77,2.77,0,0,0,2.76,2.79h13a2.9,2.9,0,0,0,2.85-2.93l-.07-27.87a2.73,2.73,0,0,0-2.48-2.71l-12.84-1.29a2.17,2.17,0,0,0-.36,0h0A2.82,2.82,0,0,0,329.28,254.28Z"/></g></mask><mask id="mask-9" x="108.66" y="170.7" width="306.91" height="90.53" maskUnits="userSpaceOnUse"><g id="mask8"><path class="cls-1" d="M339.14,171l-52.05,15.12c1.24,6,2.63,12.1,3.44,18.29,1,8.21.22,16.35-3.44,23.91A46.94,46.94,0,0,1,261,252c-11.2,4.1-23.06,3.46-34.48.65-10.77-2.74-22.19-7.05-28.26-16.86a52,52,0,0,1-6.59-17.71A31.06,31.06,0,0,1,188,206.63l-33.1-.79a3.56,3.56,0,0,0-2.85,1.3l-42.76,49.4a2.86,2.86,0,0,0,2.2,4.68h.59l38-44.22a3.82,3.82,0,0,1,5.38-.42,3.94,3.94,0,0,1,.69.78l25.4,37.74a9.6,9.6,0,0,0,8.13,4.32l99.21,1.72a11.55,11.55,0,0,0,10-5.54l40.41-66.9a6.75,6.75,0,0,1,9.28-2.26,6.87,6.87,0,0,1,1.71,1.47l58.13,71.29h4.83a2.46,2.46,0,0,0,2.25-2.65,2.43,2.43,0,0,0-.57-1.38l-68.67-82a6.79,6.79,0,0,0-5.21-2.45A6.57,6.57,0,0,0,339.14,171Z"/></g></mask><mask id="mask-10" x="62" y="343.98" width="38.4" height="41.46" maskUnits="userSpaceOnUse"><g id="mask9"><path class="cls-1" d="M62,344l13.38,41.4h.05v.06h11l14-41.4H90.35L85,361.73c-1.42,4.72-2.74,9.66-3.77,14.61h-.17a140.58,140.58,0,0,0-3.72-14.84L72.29,344Z"/></g></mask><mask id="mask-11" x="102.38" y="342.17" width="10.46" height="42.9" maskUnits="userSpaceOnUse"><g id="mask10"><path class="cls-1" d="M103.6,343.65a4.84,4.84,0,0,0,0,6.44,5.4,5.4,0,0,0,3.91,1.48h0a5.67,5.67,0,0,0,3.87-1.4,4.4,4.4,0,0,0,1.45-3.3c-.13-2.85-2.19-4.7-5.26-4.7h-.23A5.51,5.51,0,0,0,103.6,343.65Zm-.92,41.42h9.8V355.19h-9.8Z"/></g></mask><mask id="mask-12" x="118.64" y="354.31" width="28.91" height="31.75" maskUnits="userSpaceOnUse"><g id="mask11"><path class="cls-1" d="M118.64,370.56c0,9.71,6,15.51,16.2,15.51a30.92,30.92,0,0,0,11-1.9l-1.21-6.4a29.06,29.06,0,0,1-8.39,1.21c-3.89,0-8.19-1.53-8.56-5.82l19.53.11a19.36,19.36,0,0,0-2.74-14.16c-2.41-3.18-5.93-4.8-10.47-4.8C123.44,354.31,118.64,362.74,118.64,370.56Zm14.76-10A5,5,0,0,1,137,361.9a7.13,7.13,0,0,1,1.71,4.8H127.54C127.74,364.57,129.21,360.54,133.4,360.54Z"/></g></mask><mask id="mask-13" x="151.66" y="354.31" width="24.69" height="31.77" maskUnits="userSpaceOnUse"><g id="mask12"><path class="cls-1" d="M169.09,354.31c-11.27,0-17.43,7.27-17.43,16.2,0,9.56,6.22,15.56,16.05,15.56h.82a21.67,21.67,0,0,0,7.64-1.4l-1-6.91a13.76,13.76,0,0,1-5.46,1c-4.55,0-8.29-2.94-8.29-8.59-.11-5,3.11-8.58,8.11-8.58a12.48,12.48,0,0,1,5.3,1l1.5-7a22.31,22.31,0,0,0-7.24-1.21Z"/></g></mask><mask id="mask-14" x="182.51" y="343.98" width="34.5" height="41.46" maskUnits="userSpaceOnUse"><g id="mask13"><path class="cls-1" d="M208.33,344V356.1a148.1,148.1,0,0,0,.8,17.23H209a117.28,117.28,0,0,0-6.8-14.16L193.48,344h-11v41.46h8.68V372.93c0-6.83-.11-12.63-.34-18.08l.17-.07a143.57,143.57,0,0,0,7.2,14.62l8.91,16H217V344Z"/></g></mask><mask id="mask-15" x="226" y="342.19" width="28.9" height="43.2" maskUnits="userSpaceOnUse"><g id="mask14"><path class="cls-1" d="M226.12,342.19v.05H226v43.09h9.43V367.65a6.36,6.36,0,0,1,.34-2,5.13,5.13,0,0,1,4.77-3.21c3.57,0,5,2.7,5,6.59v16.39h9.41V368c0-9-4.6-13-10.63-13a10.23,10.23,0,0,0-4.94,1.18,10.88,10.88,0,0,0-3.73,3h-.06v-17Z"/></g></mask><mask id="mask-16" x="259.63" y="354.14" width="28.14" height="31.94" maskUnits="userSpaceOnUse"><g id="mask15"><path class="cls-1" d="M261.89,356.85l1.74,6.17a16.45,16.45,0,0,1,8.45-2.37c4.59,0,5.55,2.13,5.55,3.92V365c-5.57,0-10,1-13.08,2.89a9.81,9.81,0,0,0-4.92,8.81,9.19,9.19,0,0,0,2.63,6.48,9.92,9.92,0,0,0,7.27,2.86,11.19,11.19,0,0,0,8.8-3.75h.18l.52,3.06h8.74a37.08,37.08,0,0,1-.47-7.44V367.28c0-6-2.34-13.14-13.48-13.14h-.58A25,25,0,0,0,261.89,356.85Zm10.41,22.59a3.46,3.46,0,0,1-3.29-3.63c0-3.18,2.87-4.79,8.52-4.79h.4v3.28a8,8,0,0,1-.11,1.19c0,.16-.05.32-.07.48a5.26,5.26,0,0,1-5,3.46h-.48Z"/></g></mask><mask id="mask-17" x="300.53" y="327.25" width="148.74" height="57.82" maskUnits="userSpaceOnUse"><g id="mask16"><path class="cls-1" d="M311.12,329.25a15.44,15.44,0,0,0-6.36,5.76c-1.57,2.52-2.61,5.94-3.13,10.39L316,346.71c.47-3.14,1.22-5.36,2.38-6.68a6,6,0,0,1,4.51-1.88,5.8,5.8,0,0,1,4.34,1.83,6.59,6.59,0,0,1,1.73,4.45,9.37,9.37,0,0,1-1.73,5.08c-1.22,1.82-3.94,4.39-8.1,7.82-6.83,5.53-11.52,10.44-14.07,14.55a32.38,32.38,0,0,0-4.51,13.19h43v-13H321.2c1.32-1.37,2.43-2.57,3.41-3.42s2.95-2.4,5.84-4.63c4.87-3.76,8.22-7.18,10.07-10.38a19.56,19.56,0,0,0,2.78-9.88,17.16,17.16,0,0,0-2.43-8.85,14.52,14.52,0,0,0-6.6-5.82c-2.78-1.25-6.72-1.88-11.75-1.88C317.66,327.25,313.84,327.88,311.12,329.25Zm63-1.77-26,34.07v13h26v10.56h12.5V374.45h6.42V362.29h-6.42V327.48Zm0,17v17.8H360.32Zm59.14-16v19.8H415.93v-19.8H400v56.62h15.91V362.18H433.3v22.89h16V328.45Z"/></g></mask><linearGradient id="linear-gradient" x1="300.53" y1="155.84" x2="504.75" y2="155.84" gradientTransform="matrix(1, 0, 0, -1, 0, 512)" gradientUnits="userSpaceOnUse"><stop offset="0" stop-color="#ffcd42"/><stop offset="1" stop-color="#ff9e1f"/></linearGradient><mask id="mask-18" x="172.12" y="127" width="140.95" height="171.01" maskUnits="userSpaceOnUse"><g id="mask17"><path class="cls-1" d="M242.46,127A70.55,70.55,0,0,0,219,264a15,15,0,0,1,10,14V298l58.76-46.3a70.44,70.44,0,0,0,25.27-53.54c.3-38.6-30.87-70.62-69.47-71.16h-1.13Z"/></g></mask><linearGradient id="linear-gradient-2" x1="242.59" y1="385" x2="242.59" y2="213.99" gradientTransform="matrix(1, 0, 0, -1, 0, 512)" gradientUnits="userSpaceOnUse"><stop offset="0" stop-color="#f6d800"/><stop offset="1" stop-color="#ffba00"/></linearGradient><mask id="mask-19" x="172.12" y="127" width="140.95" height="171.01" maskUnits="userSpaceOnUse"><g id="mask18"><path class="cls-1" d="M242.46,127A70.55,70.55,0,0,0,219,264a15,15,0,0,1,10,14V298l58.76-46.3a70.44,70.44,0,0,0,25.27-53.54c0-.15,0-.3,0-.46.05-38.39-31-70.16-69.48-70.7h-1.13Z"/></g></mask><mask id="mask-20" x="99.77" y="298.77" width="336.07" height="27.02" maskUnits="userSpaceOnUse"><g id="mask19"><path class="cls-1" d="M101,318.74a1.51,1.51,0,0,0-1.14,1.81,1.1,1.1,0,0,0,.12.33,1.7,1.7,0,0,0,1.93,1.19c177-29.86,313.45-.6,331.87,3.69a1.83,1.83,0,0,0,2.09-1.48,2.11,2.11,0,0,0,0-.25v-.48a1.72,1.72,0,0,0-1.27-1.6C375.4,304.48,317,298.77,266,298.77,178.33,298.77,112.29,315.62,101,318.74Z"/></g></mask></defs><title>ic_vn24_helper</title><rect class="cls-2" width="512" height="512" rx="83"/><g class="cls-3"><path class="cls-1" d="M145.3,256.47l-7.43,11.33a1.45,1.45,0,0,0,1.17,2.25l7.43-.93a1.33,1.33,0,0,0,1-1.4V257.47a1.37,1.37,0,0,0-1.34-1.4A1.1,1.1,0,0,0,145.3,256.47Z"/></g><g class="cls-4"><path class="cls-1" d="M154.28,256.57l.56,9.37a1.19,1.19,0,0,0,1.17,1.22h.22l8.9-.64a1.23,1.23,0,0,0,.76-2.13l-9.38-8.73a1.56,1.56,0,0,0-.95-.35,1.23,1.23,0,0,0-1.28,1.17Z"/></g><g class="cls-5"><path class="cls-1" d="M138.92,273.2a2.07,2.07,0,0,0-1.92,2.13v20.49a2.1,2.1,0,0,0,2.06,2.14h7.61a2.1,2.1,0,0,0,2.06-2.14l-.07-21a2.16,2.16,0,0,0-2.12-2.21h-.16Z"/></g><g class="cls-6"><path class="cls-1" d="M165.19,271.57l-10,1a2.05,2.05,0,0,0-2,2l-.08,20.5a2.18,2.18,0,0,0,2.26,2.09h10a2.17,2.17,0,0,0,2.25-2.09V273.66a2.23,2.23,0,0,0-2.34-2.09h-.14"/></g><g class="cls-7"><path class="cls-1" d="M356.87,231.65V245.2a1.8,1.8,0,0,0,1.6,1.79l11.23,1.27a1.85,1.85,0,0,0,2.07-1.6,1.82,1.82,0,0,0-.32-1.3l-11.22-14.83a1.83,1.83,0,0,0-1.44-.69,1.86,1.86,0,0,0-1.92,1.79Z"/></g><g class="cls-8"><path class="cls-1" d="M346.71,229.9l-14,12.82a1.84,1.84,0,0,0-.07,2.6,1.86,1.86,0,0,0,1.2.57l13.3.91a1.78,1.78,0,0,0,2-1.57s0-.11,0-.17l.67-13.73a1.84,1.84,0,0,0-1.76-1.92H348a1.89,1.89,0,0,0-1.25.49"/></g><g class="cls-9"><path class="cls-1" d="M356.86,256.17l-.15,28.38a3,3,0,0,0,3,3h11a2.85,2.85,0,0,0,2.94-2.75s0-.06,0-.09V257a2.91,2.91,0,0,0-2.72-2.84L360,253.4l-.36,0A2.82,2.82,0,0,0,356.86,256.17Z"/></g><g class="cls-10"><path class="cls-1" d="M329.28,254.28V283.5a2.77,2.77,0,0,0,2.76,2.79h13a2.9,2.9,0,0,0,2.85-2.93l-.07-27.87a2.73,2.73,0,0,0-2.48-2.71l-12.84-1.29a2.17,2.17,0,0,0-.36,0A2.83,2.83,0,0,0,329.28,254.28Z"/></g><g class="cls-11"><path class="cls-1" d="M339.14,171l-52.05,15.12c1.24,6,2.63,12.1,3.44,18.29,1,8.21.22,16.35-3.44,23.91A46.94,46.94,0,0,1,261,252c-11.2,4.1-23.06,3.46-34.48.65-10.77-2.74-22.19-7.05-28.26-16.85a52.16,52.16,0,0,1-6.59-17.72A31.06,31.06,0,0,1,188,206.63l-33.1-.79a3.56,3.56,0,0,0-2.85,1.3l-42.76,49.4a2.86,2.86,0,0,0,2.2,4.68h.59l38-44.21a3.81,3.81,0,0,1,5.38-.43,3.94,3.94,0,0,1,.69.78l25.4,37.74a9.6,9.6,0,0,0,8.13,4.32l99.21,1.72a11.55,11.55,0,0,0,10-5.54l40.41-66.9a6.75,6.75,0,0,1,9.28-2.26,6.87,6.87,0,0,1,1.71,1.47l58.13,71.29h4.83a2.46,2.46,0,0,0,2.25-2.65,2.43,2.43,0,0,0-.57-1.38l-68.67-82a6.79,6.79,0,0,0-5.21-2.45A6.57,6.57,0,0,0,339.14,171Z"/></g><g class="cls-12"><path class="cls-1" d="M62,344l13.38,41.4h.05v.06h11l14-41.4H90.35L85,361.73c-1.42,4.72-2.74,9.66-3.77,14.61h-.17a140.58,140.58,0,0,0-3.72-14.84L72.29,344Z"/></g><g class="cls-13"><path class="cls-1" d="M107.52,351.57a5.4,5.4,0,0,1-3.91-1.48,4.84,4.84,0,0,1,0-6.44,5.48,5.48,0,0,1,4-1.48c3.07,0,5.13,1.85,5.26,4.7a4.4,4.4,0,0,1-1.45,3.3,5.62,5.62,0,0,1-3.87,1.4Zm-4.84,33.5h9.8V355.19h-9.8Z"/></g><g class="cls-14"><path class="cls-1" d="M133.4,360.54c-4.19,0-5.66,4-5.86,6.16h11.21a7.13,7.13,0,0,0-1.71-4.8A5,5,0,0,0,133.4,360.54Zm1.44,25.52c-10.15,0-16.2-5.79-16.2-15.5,0-7.82,4.8-16.25,15.34-16.25,4.54,0,8.06,1.62,10.47,4.8a19.36,19.36,0,0,1,2.74,14.16l-19.53-.11c.37,4.29,4.67,5.82,8.56,5.82a29.06,29.06,0,0,0,8.39-1.21l1.21,6.4A30.69,30.69,0,0,1,134.84,386.06Z"/></g><g class="cls-15"><path class="cls-1" d="M151.66,370.51c0,9.56,6.22,15.56,16.05,15.56a21.78,21.78,0,0,0,8.46-1.39l-1-6.91a13.76,13.76,0,0,1-5.46,1c-4.55,0-8.29-2.94-8.29-8.59-.11-5,3.11-8.59,8.11-8.59a12.65,12.65,0,0,1,5.3,1l1.5-7a22.16,22.16,0,0,0-7.26-1.2C157.82,354.32,151.66,361.57,151.66,370.51Z"/></g><g class="cls-16"><path class="cls-1" d="M208.33,344V356.1a148.1,148.1,0,0,0,.8,17.23H209a117.28,117.28,0,0,0-6.8-14.16L193.48,344h-11v41.46h8.68V372.93c0-6.82-.11-12.63-.34-18.08l.17-.06a144.44,144.44,0,0,0,7.2,14.61l8.91,16H217V344Z"/></g><g class="cls-17"><path class="cls-1" d="M226.12,342.19v.05H226v43.09h9.43V367.65a6.36,6.36,0,0,1,.34-2,5.13,5.13,0,0,1,4.77-3.21c3.57,0,5,2.7,5,6.59v16.39h9.41V368c0-9-4.6-13-10.63-13a10.23,10.23,0,0,0-4.94,1.18,10.88,10.88,0,0,0-3.73,3h-.06v-17Z"/></g><g class="cls-18"><path class="cls-1" d="M277.53,371c-5.65,0-8.52,1.61-8.52,4.79a3.47,3.47,0,0,0,3.29,3.64h.48a5.25,5.25,0,0,0,5-3.46c0-.16,0-.32.07-.48a8,8,0,0,0,.11-1.19V371h-.4Zm-8,15.05a9.92,9.92,0,0,1-7.27-2.86,9.19,9.19,0,0,1-2.63-6.48,9.81,9.81,0,0,1,4.92-8.81c3.11-1.91,7.51-2.89,13.08-2.89v-.46c0-1.78-1-3.92-5.55-3.92a16.55,16.55,0,0,0-8.45,2.37l-1.74-6.17a25.19,25.19,0,0,1,11.93-2.71c11.14,0,13.48,7.15,13.48,13.14v10.66a37.08,37.08,0,0,0,.47,7.44H279l-.52-3.06h-.18A11.16,11.16,0,0,1,269.53,386.07Z"/></g><g class="cls-19"><path class="cls-20" d="M311.12,329.25a15.44,15.44,0,0,0-6.36,5.76c-1.57,2.52-2.61,5.94-3.13,10.39L316,346.71c.47-3.14,1.22-5.36,2.38-6.68a6,6,0,0,1,4.51-1.88,5.8,5.8,0,0,1,4.34,1.83,6.59,6.59,0,0,1,1.73,4.45,9.37,9.37,0,0,1-1.73,5.08c-1.22,1.82-3.94,4.39-8.1,7.82-6.83,5.53-11.52,10.44-14.07,14.55a32.38,32.38,0,0,0-4.51,13.19h43v-13H321.2c1.32-1.37,2.43-2.57,3.41-3.42s2.95-2.4,5.84-4.63c4.87-3.76,8.22-7.18,10.07-10.38a19.56,19.56,0,0,0,2.78-9.88,17.16,17.16,0,0,0-2.43-8.85,14.52,14.52,0,0,0-6.6-5.82c-2.78-1.25-6.72-1.88-11.75-1.88C317.66,327.25,313.84,327.88,311.12,329.25Zm63-1.77-26,34.07v13h26v10.56h12.5V374.45h6.42V362.29h-6.42V327.48Zm0,17v17.8H360.32Zm59.14-16v19.8H415.93v-19.8H400v56.62h15.91V362.18H433.3v22.89h16V328.45Z"/></g><g class="cls-21"><path class="cls-22" d="M242.46,127A70.55,70.55,0,0,0,219,264a15,15,0,0,1,10,14V298l58.76-46.3a70.44,70.44,0,0,0,25.27-53.54c.3-38.6-30.87-70.62-69.47-71.16h-1.13Z"/></g><g class="cls-23"><path class="cls-22" d="M242.46,127A70.55,70.55,0,0,0,219,264a15,15,0,0,1,10,14V298l58.76-46.3a70.44,70.44,0,0,0,25.27-53.54c0-.15,0-.3,0-.46.05-38.39-31-70.16-69.48-70.7h-1.13Z"/></g><path class="cls-1" d="M214.79,230.28V210.17h18.15v1.59c0,3.86.76,6.72,2.28,8.56s3.9,2.77,7.14,2.77a8.51,8.51,0,0,0,6.09-2.26,8.86,8.86,0,0,0-.35-12.44,26,26,0,0,0-8.42-4.58q-3.7-1.32-6.66-2.4a61.24,61.24,0,0,1-5.84-2.48,26.09,26.09,0,0,1-4.94-3,22.42,22.42,0,0,1-4.34-4.47,16.34,16.34,0,0,1-2.53-5.43,25.24,25.24,0,0,1-.79-6.59q0-9.1,5-14.86T234,156.76v-5.53h15.47v5.53a50.07,50.07,0,0,1,9.42,2.83,40.31,40.31,0,0,1,9.05,5.25v18.85H250.25v-1.42c0-3.48-.73-6.11-2.17-7.89s-3.6-2.66-6.46-2.65a9.51,9.51,0,0,0-6.48,2.08,6.72,6.72,0,0,0-2.41,5.35,6.17,6.17,0,0,0,1.58,4.27,14.35,14.35,0,0,0,4.72,3.16q3.15,1.42,8.58,3.27a61.57,61.57,0,0,1,12.56,5.64,18.9,18.9,0,0,1,6.89,7.36q2.29,4.45,2.29,11.52A27.28,27.28,0,0,1,267,226a21.12,21.12,0,0,1-6.88,8.39,25.8,25.8,0,0,1-10.66,4.4v5.38H234v-5.27A41,41,0,0,1,214.79,230.28Z"/><path class="cls-1" d="M101,318.74a1.5,1.5,0,0,0-1.14,1.8,1.35,1.35,0,0,0,.11.34,1.72,1.72,0,0,0,1.94,1.19c177-29.86,313.45-.6,331.87,3.69a1.83,1.83,0,0,0,2.09-1.48,2.11,2.11,0,0,0,0-.25v-.48a1.72,1.72,0,0,0-1.27-1.6C375.4,304.48,317,298.77,266,298.77,178.33,298.77,112.29,315.62,101,318.74Z"/><g class="cls-24"><path class="cls-1" d="M101,318.74a1.5,1.5,0,0,0-1.14,1.8,1.35,1.35,0,0,0,.11.34,1.72,1.72,0,0,0,1.94,1.19c177-29.86,313.45-.6,331.87,3.69a1.83,1.83,0,0,0,2.09-1.48,2.11,2.11,0,0,0,0-.25v-.48a1.72,1.72,0,0,0-1.27-1.6C375.4,304.48,317,298.77,266,298.77,178.33,298.77,112.29,315.62,101,318.74Z"/></g></svg>