<svg width="512" height="512" viewBox="0 0 512 512" fill="none" xmlns="http://www.w3.org/2000/svg">
<rect y="2" width="512" height="509" rx="83" fill="white"/>
<mask id="mask0" mask-type="alpha" maskUnits="userSpaceOnUse" x="161" y="261" width="8" height="11">
<path fill-rule="evenodd" clip-rule="evenodd" d="M167.219 261.417L161.726 270.08C161.268 270.911 161.828 271.86 162.59 271.801L168.083 271.089C168.541 271.03 168.847 270.555 168.847 270.021V262.188C168.847 261.542 168.351 261.115 167.859 261.115C167.628 261.115 167.398 261.208 167.219 261.417Z" fill="white"/>
</mask>
<g mask="url(#mask0)">
<path fill-rule="evenodd" clip-rule="evenodd" d="M167.219 261.417L161.726 270.08C161.268 270.911 161.828 271.86 162.59 271.801L168.083 271.089C168.541 271.03 168.847 270.555 168.847 270.021V262.188C168.847 261.542 168.351 261.115 167.859 261.115C167.628 261.115 167.398 261.208 167.219 261.417Z" fill="url(#paint0_linear)"/>
</g>
<mask id="mask1" mask-type="alpha" maskUnits="userSpaceOnUse" x="174" y="260" width="10" height="10">
<path fill-rule="evenodd" clip-rule="evenodd" d="M174.534 261.526L174.969 268.87C174.969 269.482 175.459 269.872 176.057 269.816L183.019 269.315C183.835 269.259 184.271 268.202 183.618 267.646L176.275 260.804C176.04 260.615 175.779 260.532 175.533 260.532C174.979 260.532 174.496 260.95 174.534 261.526Z" fill="white"/>
</mask>
<g mask="url(#mask1)">
<path fill-rule="evenodd" clip-rule="evenodd" d="M174.534 261.526L174.969 268.87C174.969 269.482 175.459 269.872 176.057 269.816L183.019 269.315C183.835 269.259 184.271 268.202 183.618 267.646L176.275 260.804C176.04 260.615 175.779 260.532 175.533 260.532C174.979 260.532 174.496 260.95 174.534 261.526Z" fill="url(#paint1_linear)"/>
</g>
<mask id="mask2" mask-type="alpha" maskUnits="userSpaceOnUse" x="161" y="274" width="10" height="20">
<path fill-rule="evenodd" clip-rule="evenodd" d="M162.586 274.445C161.751 274.445 161.084 275.224 161.084 276.059V291.524C161.084 292.358 161.751 293.137 162.698 293.137H168.65C169.484 293.137 170.263 292.469 170.263 291.524L170.208 275.669C170.208 274.723 169.484 274 168.428 274L162.586 274.445Z" fill="white"/>
</mask>
<g mask="url(#mask2)">
<path fill-rule="evenodd" clip-rule="evenodd" d="M162.586 274.445C161.751 274.445 161.084 275.224 161.084 276.059V291.524C161.084 292.358 161.751 293.137 162.698 293.137H168.65C169.484 293.137 170.263 292.469 170.263 291.524L170.208 275.669C170.208 274.723 169.484 274 168.428 274L162.586 274.445Z" fill="url(#paint2_linear)"/>
</g>
<mask id="mask3" mask-type="alpha" maskUnits="userSpaceOnUse" x="173" y="272" width="12" height="21">
<path fill-rule="evenodd" clip-rule="evenodd" d="M182.588 272.965L174.992 273.735C174.103 273.79 173.45 274.45 173.45 275.274L173.39 290.942C173.39 291.877 174.221 292.536 175.111 292.536H182.765C183.775 292.536 184.487 291.767 184.487 290.942V274.56C184.487 273.659 183.659 272.962 182.697 272.962C182.661 272.962 182.624 272.964 182.588 272.965Z" fill="white"/>
</mask>
<g mask="url(#mask3)">
<path fill-rule="evenodd" clip-rule="evenodd" d="M182.588 272.965L174.992 273.735C174.103 273.79 173.45 274.45 173.45 275.274L173.39 290.942C173.39 291.877 174.221 292.536 175.111 292.536H182.765C183.775 292.536 184.487 291.767 184.487 290.942V274.56C184.487 273.659 183.659 272.962 182.697 272.962C182.661 272.962 182.624 272.964 182.588 272.965Z" fill="url(#paint3_linear)"/>
</g>
<mask id="mask4" mask-type="alpha" maskUnits="userSpaceOnUse" x="329" y="241" width="12" height="15">
<path fill-rule="evenodd" clip-rule="evenodd" d="M329.596 242.927V253.103C329.596 253.774 330.121 254.388 330.82 254.444L339.385 255.395C340.608 255.563 341.423 254.221 340.724 253.214L332.161 242.087C331.871 241.729 331.464 241.57 331.058 241.57C330.323 241.57 329.596 242.097 329.596 242.927Z" fill="white"/>
</mask>
<g mask="url(#mask4)">
<path fill-rule="evenodd" clip-rule="evenodd" d="M329.596 242.927V253.103C329.596 253.774 330.121 254.388 330.82 254.444L339.385 255.395C340.608 255.563 341.423 254.221 340.724 253.214L332.161 242.087C331.871 241.729 331.464 241.57 331.058 241.57C330.323 241.57 329.596 242.097 329.596 242.927Z" fill="url(#paint4_linear)"/>
</g>
<mask id="mask5" mask-type="alpha" maskUnits="userSpaceOnUse" x="310" y="240" width="14" height="15">
<path fill-rule="evenodd" clip-rule="evenodd" d="M321.388 241.348L310.909 250.977C310.06 251.827 310.569 253.299 311.759 253.356L321.728 254.036C322.521 254.092 323.201 253.526 323.201 252.733L323.711 242.424C323.75 241.592 323.068 240.981 322.325 240.981C322.007 240.981 321.677 241.094 321.388 241.348Z" fill="white"/>
</mask>
<g mask="url(#mask5)">
<path fill-rule="evenodd" clip-rule="evenodd" d="M321.388 241.348L310.909 250.977C310.06 251.827 310.569 253.299 311.759 253.356L321.728 254.036C322.521 254.092 323.201 253.526 323.201 252.733L323.711 242.424C323.75 241.592 323.068 240.981 322.325 240.981C322.007 240.981 321.677 241.094 321.388 241.348Z" fill="url(#paint5_linear)"/>
</g>
<mask id="mask6" mask-type="alpha" maskUnits="userSpaceOnUse" x="329" y="259" width="14" height="27">
<path fill-rule="evenodd" clip-rule="evenodd" d="M329.58 261.671L329.467 283.16C329.467 284.427 330.487 285.419 331.676 285.419H339.946C341.249 285.419 342.155 284.427 342.155 283.27V262.332C342.155 261.175 341.192 260.239 340.116 260.183L331.959 259.577C331.868 259.565 331.777 259.559 331.686 259.559C330.552 259.559 329.58 260.496 329.58 261.671Z" fill="white"/>
</mask>
<g mask="url(#mask6)">
<path fill-rule="evenodd" clip-rule="evenodd" d="M329.58 261.671L329.467 283.16C329.467 284.427 330.487 285.419 331.676 285.419H339.946C341.249 285.419 342.155 284.427 342.155 283.27V262.332C342.155 261.175 341.192 260.239 340.116 260.183L331.959 259.577C331.868 259.565 331.777 259.559 331.686 259.559C330.552 259.559 329.58 260.496 329.58 261.671Z" fill="url(#paint6_linear)"/>
</g>
<mask id="mask7" mask-type="alpha" maskUnits="userSpaceOnUse" x="308" y="257" width="15" height="28">
<path fill-rule="evenodd" clip-rule="evenodd" d="M308.543 259.745V282.084C308.543 283.231 309.433 284.214 310.712 284.214H320.559C321.728 284.214 322.729 283.231 322.729 281.975L322.673 260.673C322.673 259.581 321.839 258.707 320.782 258.598L310.99 257.615C310.897 257.603 310.804 257.597 310.712 257.597C309.547 257.597 308.543 258.531 308.543 259.745Z" fill="white"/>
</mask>
<g mask="url(#mask7)">
<path fill-rule="evenodd" clip-rule="evenodd" d="M308.543 259.745V282.084C308.543 283.231 309.433 284.214 310.712 284.214H320.559C321.728 284.214 322.729 283.231 322.729 281.975L322.673 260.673C322.673 259.581 321.839 258.707 320.782 258.598L310.99 257.615C310.897 257.603 310.804 257.597 310.712 257.597C309.547 257.597 308.543 258.531 308.543 259.745Z" fill="url(#paint7_linear)"/>
</g>
<mask id="mask8" mask-type="alpha" maskUnits="userSpaceOnUse" x="112" y="300" width="312" height="26">
<path fill-rule="evenodd" clip-rule="evenodd" d="M113.584 319.436C112.745 319.6 112.241 320.538 112.633 321.419C112.912 322.19 113.64 322.686 114.422 322.521C278.354 294.861 404.799 321.97 421.864 325.938C422.871 326.102 423.822 325.331 423.822 324.34V323.898C423.822 323.238 423.319 322.576 422.648 322.411C367.832 306.228 313.759 300.935 266.469 300.935C185.269 300.936 124.085 316.545 113.584 319.436Z" fill="white"/>
</mask>
<g mask="url(#mask8)">
<path fill-rule="evenodd" clip-rule="evenodd" d="M113.584 319.436C112.745 319.6 112.241 320.538 112.633 321.419C112.912 322.19 113.64 322.686 114.422 322.521C278.354 294.861 404.799 321.97 421.864 325.938C422.871 326.102 423.822 325.331 423.822 324.34V323.898C423.822 323.238 423.319 322.576 422.648 322.411C367.832 306.228 313.759 300.935 266.469 300.935C185.269 300.936 124.085 316.545 113.584 319.436Z" fill="url(#paint8_linear)"/>
</g>
<mask id="mask9" mask-type="alpha" maskUnits="userSpaceOnUse" x="139" y="196" width="236" height="70">
<path fill-rule="evenodd" clip-rule="evenodd" d="M316.008 196.339L276.077 207.98C277.031 212.637 278.098 217.293 278.717 222.061C279.502 228.38 278.885 234.644 276.077 240.464C272.089 248.89 264.845 255.432 256.083 258.703C247.49 261.863 238.392 261.364 229.631 259.202C221.374 257.095 212.613 253.769 207.952 246.23C205.425 242.073 203.796 237.415 202.897 232.593C201.437 229.766 200.37 226.827 200.089 223.779L174.704 223.169C173.862 223.169 173.019 223.502 172.513 224.167L139.715 262.195C138.536 263.637 139.547 265.798 141.4 265.798H141.849L170.997 231.762C172.289 230.265 174.535 230.431 175.659 232.038L195.147 261.086C196.495 263.193 198.854 264.413 201.381 264.413L277.481 265.743C280.626 265.798 283.546 264.135 285.175 261.474L316.176 209.975C318.03 206.871 322.411 206.65 324.601 209.366L369.193 264.246H372.901C374.305 264.246 375.203 262.416 374.192 261.142L321.512 198.002C320.498 196.792 319.037 196.116 317.514 196.116C317.014 196.116 316.508 196.188 316.008 196.339Z" fill="white"/>
</mask>
<g mask="url(#mask9)">
<path fill-rule="evenodd" clip-rule="evenodd" d="M316.008 196.339L276.077 207.98C277.031 212.637 278.098 217.293 278.717 222.061C279.502 228.38 278.885 234.644 276.077 240.464C272.089 248.89 264.845 255.432 256.083 258.703C247.49 261.863 238.392 261.364 229.631 259.202C221.374 257.095 212.613 253.769 207.952 246.23C205.425 242.073 203.796 237.415 202.897 232.593C201.437 229.766 200.37 226.827 200.089 223.779L174.704 223.169C173.862 223.169 173.019 223.502 172.513 224.167L139.715 262.195C138.536 263.637 139.547 265.798 141.4 265.798H141.849L170.997 231.762C172.289 230.265 174.535 230.431 175.659 232.038L195.147 261.086C196.495 263.193 198.854 264.413 201.381 264.413L277.481 265.743C280.626 265.798 283.546 264.135 285.175 261.474L316.176 209.975C318.03 206.871 322.411 206.65 324.601 209.366L369.193 264.246H372.901C374.305 264.246 375.203 262.416 374.192 261.142L321.512 198.002C320.498 196.792 319.037 196.116 317.514 196.116C317.014 196.116 316.508 196.188 316.008 196.339Z" fill="url(#paint9_linear)"/>
</g>
<mask id="mask10" mask-type="alpha" maskUnits="userSpaceOnUse" x="60" y="359" width="39" height="43">
<path fill-rule="evenodd" clip-rule="evenodd" d="M60 359.457L73.5676 401.895H73.6252V401.954H84.7569L98.9622 359.515H88.7577L83.3654 377.644C81.9163 382.483 80.5823 387.555 79.5389 392.626H79.3646C78.3793 387.322 77.1035 382.483 75.5963 377.412L70.4364 359.457H60Z" fill="white"/>
</mask>
<g mask="url(#mask10)">
<path fill-rule="evenodd" clip-rule="evenodd" d="M60 359.457L73.5676 401.895H73.6252V401.954H84.7569L98.9622 359.515H88.7577L83.3654 377.644C81.9163 382.483 80.5823 387.555 79.5389 392.626H79.3646C78.3793 387.322 77.1035 382.483 75.5963 377.412L70.4364 359.457H60Z" fill="url(#paint10_linear)"/>
</g>
<mask id="mask11" mask-type="alpha" maskUnits="userSpaceOnUse" x="100" y="357" width="12" height="45">
<path fill-rule="evenodd" clip-rule="evenodd" d="M100.967 362.415C100.906 365.142 102.968 367.229 106.181 367.229C109.454 367.229 111.577 365.025 111.577 362.415C111.455 359.688 109.515 357.599 106.241 357.599C102.968 357.599 100.906 359.63 100.967 362.415ZM101.27 401.571H111.213V370.942H101.27V401.571Z" fill="white"/>
</mask>
<g mask="url(#mask11)">
<path fill-rule="evenodd" clip-rule="evenodd" d="M100.967 362.415C100.906 365.142 102.968 367.229 106.181 367.229C109.454 367.229 111.577 365.025 111.577 362.415C111.455 359.688 109.515 357.599 106.241 357.599C102.968 357.599 100.906 359.63 100.967 362.415ZM101.27 401.571H111.213V370.942H101.27V401.571Z" fill="url(#paint11_linear)"/>
</g>
<mask id="mask12" mask-type="alpha" maskUnits="userSpaceOnUse" x="117" y="370" width="30" height="33">
<path fill-rule="evenodd" clip-rule="evenodd" d="M117.453 386.705C117.453 396.451 123.399 402.595 133.892 402.595C138.031 402.595 141.878 401.886 145.026 400.645L143.802 394.088C141.237 394.856 138.556 395.329 135.291 395.329C130.802 395.329 126.955 393.379 126.605 389.363L146.426 389.481C146.6 388.771 146.775 387.354 146.775 385.642C146.775 377.962 142.986 370.046 133.018 370.046C122.292 370.046 117.453 378.789 117.453 386.705ZM132.435 376.426C136.807 376.426 137.856 380.324 137.856 382.747H126.488C126.722 380.147 128.412 376.426 132.435 376.426Z" fill="white"/>
</mask>
<g mask="url(#mask12)">
<path fill-rule="evenodd" clip-rule="evenodd" d="M117.453 386.705C117.453 396.451 123.399 402.595 133.892 402.595C138.031 402.595 141.878 401.886 145.026 400.645L143.802 394.088C141.237 394.856 138.556 395.329 135.291 395.329C130.802 395.329 126.955 393.379 126.605 389.363L146.426 389.481C146.6 388.771 146.775 387.354 146.775 385.642C146.775 377.962 142.986 370.046 133.018 370.046C122.292 370.046 117.453 378.789 117.453 386.705ZM132.435 376.426C136.807 376.426 137.856 380.324 137.856 382.747H126.488C126.722 380.147 128.412 376.426 132.435 376.426Z" fill="url(#paint12_linear)"/>
</g>
<mask id="mask13" mask-type="alpha" maskUnits="userSpaceOnUse" x="150" y="370" width="26" height="33">
<path fill-rule="evenodd" clip-rule="evenodd" d="M150.956 386.645C150.956 396.451 157.259 402.595 167.239 402.595C170.916 402.595 174.126 402.004 175.819 401.176L174.826 394.088C173.309 394.738 171.557 395.093 169.281 395.093C164.671 395.093 160.877 392.08 160.877 386.291C160.761 381.151 164.03 377.489 169.107 377.489C171.674 377.489 173.309 377.962 174.476 378.494L175.994 371.287C173.893 370.519 171.207 370.046 168.64 370.046C157.2 370.046 150.956 377.489 150.956 386.645Z" fill="white"/>
</mask>
<g mask="url(#mask13)">
<path fill-rule="evenodd" clip-rule="evenodd" d="M150.956 386.645C150.956 396.451 157.259 402.595 167.239 402.595C170.916 402.595 174.126 402.004 175.819 401.176L174.826 394.088C173.309 394.738 171.557 395.093 169.281 395.093C164.671 395.093 160.877 392.08 160.877 386.291C160.761 381.151 164.03 377.489 169.107 377.489C171.674 377.489 173.309 377.962 174.476 378.494L175.994 371.287C173.893 370.519 171.207 370.046 168.64 370.046C157.2 370.046 150.956 377.489 150.956 386.645Z" fill="url(#paint13_linear)"/>
</g>
<mask id="mask14" mask-type="alpha" maskUnits="userSpaceOnUse" x="182" y="359" width="36" height="43">
<path fill-rule="evenodd" clip-rule="evenodd" d="M208.439 359.457V371.873C208.439 378.169 208.612 383.94 209.25 389.537H209.076C207.222 384.815 204.73 379.51 202.181 375.021L193.374 359.457H182.25V401.895H182.25V401.954H191.056V389.129C191.056 382.133 190.94 376.187 190.709 370.591L190.882 370.533C192.968 375.546 195.634 380.967 198.183 385.515L207.222 401.895H217.246V359.457H208.439Z" fill="white"/>
</mask>
<g mask="url(#mask14)">
<path fill-rule="evenodd" clip-rule="evenodd" d="M208.439 359.457V371.873C208.439 378.169 208.612 383.94 209.25 389.537H209.076C207.222 384.815 204.73 379.51 202.181 375.021L193.374 359.457H182.25V401.895H182.25V401.954H191.056V389.129C191.056 382.133 190.94 376.187 190.709 370.591L190.882 370.533C192.968 375.546 195.634 380.967 198.183 385.515L207.222 401.895H217.246V359.457H208.439Z" fill="url(#paint14_linear)"/>
</g>
<mask id="mask15" mask-type="alpha" maskUnits="userSpaceOnUse" x="226" y="357" width="30" height="45">
<path fill-rule="evenodd" clip-rule="evenodd" d="M226.487 357.616V357.674H226.371V401.845H235.93V383.714C235.93 383.137 236.048 382.271 236.281 381.635C236.98 380.019 238.555 378.344 241.119 378.344C244.734 378.344 246.133 381.116 246.133 385.1V401.902H255.693V384.061C255.693 374.88 251.029 370.723 244.909 370.723C243.16 370.723 241.294 371.127 239.895 371.935C238.38 372.686 237.155 373.725 236.106 375.053H236.048V357.616H226.487Z" fill="white"/>
</mask>
<g mask="url(#mask15)">
<path fill-rule="evenodd" clip-rule="evenodd" d="M226.487 357.616V357.674H226.371V401.845H235.93V383.714C235.93 383.137 236.048 382.271 236.281 381.635C236.98 380.019 238.555 378.344 241.119 378.344C244.734 378.344 246.133 381.116 246.133 385.1V401.902H255.693V384.061C255.693 374.88 251.029 370.723 244.909 370.723C243.16 370.723 241.294 371.127 239.895 371.935C238.38 372.686 237.155 373.725 236.106 375.053H236.048V357.616H226.487Z" fill="url(#paint15_linear)"/>
</g>
<mask id="mask16" mask-type="alpha" maskUnits="userSpaceOnUse" x="260" y="369" width="30" height="34">
<path fill-rule="evenodd" clip-rule="evenodd" d="M262.776 372.646L264.538 378.966C266.593 377.607 269.941 376.544 273.112 376.544C277.869 376.544 278.749 378.848 278.749 380.562V381.034C267.709 381.034 260.486 384.933 260.486 393.025C260.486 397.987 264.243 402.595 270.528 402.595C274.227 402.595 277.399 401.236 279.454 398.755H279.631L280.159 401.886H289.026C288.615 400.113 288.556 397.278 288.556 394.265V383.338C288.556 376.012 285.208 369.869 274.873 369.869C269.235 369.869 264.89 371.405 262.776 372.646ZM269.999 392.08C269.999 388.359 273.875 387.118 278.984 387.177H279.043V390.544C279.043 391.194 278.925 391.726 278.866 392.257C278.221 394.207 276.224 395.802 273.816 395.802C271.702 395.802 269.999 394.561 269.999 392.08Z" fill="white"/>
</mask>
<g mask="url(#mask16)">
<path fill-rule="evenodd" clip-rule="evenodd" d="M262.776 372.646L264.538 378.966C266.593 377.607 269.941 376.544 273.112 376.544C277.869 376.544 278.749 378.848 278.749 380.562V381.034C267.709 381.034 260.486 384.933 260.486 393.025C260.486 397.987 264.243 402.595 270.528 402.595C274.227 402.595 277.399 401.236 279.454 398.755H279.631L280.159 401.886H289.026C288.615 400.113 288.556 397.278 288.556 394.265V383.338C288.556 376.012 285.208 369.869 274.873 369.869C269.235 369.869 264.89 371.405 262.776 372.646ZM269.999 392.08C269.999 388.359 273.875 387.118 278.984 387.177H279.043V390.544C279.043 391.194 278.925 391.726 278.866 392.257C278.221 394.207 276.224 395.802 273.816 395.802C271.702 395.802 269.999 394.561 269.999 392.08Z" fill="url(#paint16_linear)"/>
</g>
<path fill-rule="evenodd" clip-rule="evenodd" d="M345.595 401.57H301.973C302.502 396.831 304.028 392.267 306.553 388.055C309.136 383.843 313.891 378.811 320.819 373.136C325.046 369.626 327.806 366.993 329.039 365.12C330.214 363.249 330.8 361.61 330.8 359.914C330.8 358.159 330.154 356.637 329.039 355.35C327.865 354.122 326.397 353.478 324.636 353.478C322.757 353.478 321.289 354.122 320.056 355.408C318.882 356.755 318.119 359.036 317.649 362.254L303.089 360.908C303.617 356.345 304.674 352.834 306.259 350.26C307.844 347.686 309.958 345.755 312.717 344.351C315.477 342.947 319.352 342.303 324.283 342.303C329.391 342.303 333.383 342.947 336.201 344.234C339.02 345.521 341.309 347.51 342.894 350.201C344.479 352.951 345.36 355.935 345.36 359.27C345.36 362.78 344.362 366.232 342.542 369.392C340.664 372.667 337.258 376.178 332.326 380.04C329.391 382.322 327.453 383.843 326.397 384.779C325.399 385.656 324.283 386.885 322.933 388.289H345.595V401.57Z" fill="#FF9E1F"/>
<path fill-rule="evenodd" clip-rule="evenodd" d="M376.653 378.226V359.972L362.621 378.226H376.653ZM376.653 390.747H350.234V377.466L376.653 342.537H389.335V378.226H395.851V390.688H389.335V401.57H376.653V390.747Z" fill="#FF9E1F"/>
<path fill-rule="evenodd" clip-rule="evenodd" d="M402.897 343.532H419.043V363.834H436.656V343.532H452.859V401.57H436.656V378.109H419.043V401.57H402.897V343.532Z" fill="#FF9E1F"/>
<mask id="mask17" mask-type="alpha" maskUnits="userSpaceOnUse" x="157" y="110" width="177" height="215">
<path fill-rule="evenodd" clip-rule="evenodd" d="M245.179 110.576C196.535 110.67 157.137 150.15 157.137 198.899C157.137 237.381 181.69 270.057 215.867 282.088C223.332 284.783 228.371 291.727 228.371 299.659V324.631L301.917 266.679C321.052 250.664 333.329 226.603 333.556 199.657C333.935 151.345 294.907 111.268 246.596 110.585C246.235 110.58 245.878 110.577 245.518 110.576H245.179Z" fill="white"/>
</mask>
<g mask="url(#mask17)">
<path fill-rule="evenodd" clip-rule="evenodd" d="M245.179 110.576C196.535 110.67 157.137 150.15 157.137 198.899C157.137 237.381 181.69 270.057 215.867 282.088C223.332 284.783 228.371 291.727 228.371 299.659V324.631L301.917 266.679C321.052 250.664 333.329 226.603 333.556 199.657C333.935 151.345 294.907 111.268 246.596 110.585C246.235 110.58 245.878 110.577 245.518 110.576H245.179Z" fill="url(#paint17_linear)"/>
</g>
<path fill-rule="evenodd" clip-rule="evenodd" d="M254.652 208.66V141.813C254.652 137.3 252.014 134.988 248.642 134.866C245.13 134.739 242.292 137.019 242.292 141.61V208.66H254.652Z" fill="white"/>
<path fill-rule="evenodd" clip-rule="evenodd" d="M270.471 212.856H254.937V212.845H239.329V212.856H223.794C218.375 212.856 214.04 217.298 214.04 222.688V224.624H280.226V222.688C280.226 217.226 275.818 212.856 270.471 212.856Z" fill="white"/>
<path fill-rule="evenodd" clip-rule="evenodd" d="M215.99 226.489V246.213C215.99 251.078 212.494 255.077 208.002 255.842C207.025 256.008 206.309 256.859 206.309 257.858C206.309 258.989 207.218 259.906 208.34 259.906H223.794C226.339 259.906 228.735 259.465 230.917 258.7C232.954 257.705 235.274 255.96 237.512 252.918C237.512 252.918 236.796 258.409 233.549 259.655V259.906H244.778C247.205 259.2 250.411 257.46 253.465 253.311C253.465 253.311 252.797 258.435 249.824 259.906H264.69C272.133 259.906 278.274 253.788 278.274 246.213V226.489H215.99Z" fill="white"/>
<defs>
<linearGradient id="paint0_linear" x1="150.89" y1="255.397" x2="150.325" y2="297.657" gradientUnits="userSpaceOnUse">
<stop stop-color="#66A8FF"/>
<stop offset="1" stop-color="#4B7BE2"/>
</linearGradient>
<linearGradient id="paint1_linear" x1="159.244" y1="255.849" x2="158.97" y2="295.472" gradientUnits="userSpaceOnUse">
<stop stop-color="#66A8FF"/>
<stop offset="1" stop-color="#4B7BE2"/>
</linearGradient>
<linearGradient id="paint2_linear" x1="156.365" y1="256.719" x2="155.118" y2="296.312" gradientUnits="userSpaceOnUse">
<stop stop-color="#66A8FF"/>
<stop offset="1" stop-color="#4B7BE2"/>
</linearGradient>
<linearGradient id="paint3_linear" x1="168.069" y1="257.278" x2="167.116" y2="296.419" gradientUnits="userSpaceOnUse">
<stop stop-color="#66A8FF"/>
<stop offset="1" stop-color="#4B7BE2"/>
</linearGradient>
<linearGradient id="paint4_linear" x1="313.697" y1="236.841" x2="319.447" y2="285.395" gradientUnits="userSpaceOnUse">
<stop stop-color="#66A8FF"/>
<stop offset="1" stop-color="#4B7BE2"/>
</linearGradient>
<linearGradient id="paint5_linear" x1="291.218" y1="237.818" x2="294.924" y2="287.231" gradientUnits="userSpaceOnUse">
<stop stop-color="#66A8FF"/>
<stop offset="1" stop-color="#4B7BE2"/>
</linearGradient>
<linearGradient id="paint6_linear" x1="321.156" y1="240.396" x2="335.776" y2="284.903" gradientUnits="userSpaceOnUse">
<stop stop-color="#66A8FF"/>
<stop offset="1" stop-color="#4B7BE2"/>
</linearGradient>
<linearGradient id="paint7_linear" x1="300.297" y1="241.493" x2="312.773" y2="286.722" gradientUnits="userSpaceOnUse">
<stop stop-color="#66A8FF"/>
<stop offset="1" stop-color="#4B7BE2"/>
</linearGradient>
<linearGradient id="paint8_linear" x1="-961.11" y1="159.322" x2="-960.934" y2="353.251" gradientUnits="userSpaceOnUse">
<stop stop-color="#66A8FF"/>
<stop offset="1" stop-color="#4B7BE2"/>
</linearGradient>
<linearGradient id="paint9_linear" x1="19.9291" y1="190.149" x2="20.2721" y2="329.231" gradientUnits="userSpaceOnUse">
<stop stop-color="#66A8FF"/>
<stop offset="1" stop-color="#4B7BE2"/>
</linearGradient>
<linearGradient id="paint10_linear" x1="64.6971" y1="501.407" x2="286.937" y2="506.53" gradientUnits="userSpaceOnUse">
<stop stop-color="#66A8FF"/>
<stop offset="1" stop-color="#4B7BE2"/>
</linearGradient>
<linearGradient id="paint11_linear" x1="65.0635" y1="860.028" x2="297.434" y2="860.381" gradientUnits="userSpaceOnUse">
<stop stop-color="#66A8FF"/>
<stop offset="1" stop-color="#4B7BE2"/>
</linearGradient>
<linearGradient id="paint12_linear" x1="64.9512" y1="508.511" x2="288.402" y2="513.522" gradientUnits="userSpaceOnUse">
<stop stop-color="#66A8FF"/>
<stop offset="1" stop-color="#4B7BE2"/>
</linearGradient>
<linearGradient id="paint13_linear" x1="65.5006" y1="528.953" x2="289.233" y2="532.608" gradientUnits="userSpaceOnUse">
<stop stop-color="#66A8FF"/>
<stop offset="1" stop-color="#4B7BE2"/>
</linearGradient>
<linearGradient id="paint14_linear" x1="67.1982" y1="511.97" x2="289.306" y2="516.103" gradientUnits="userSpaceOnUse">
<stop stop-color="#66A8FF"/>
<stop offset="1" stop-color="#4B7BE2"/>
</linearGradient>
<linearGradient id="paint15_linear" x1="67.9448" y1="544.098" x2="291.41" y2="546.744" gradientUnits="userSpaceOnUse">
<stop stop-color="#66A8FF"/>
<stop offset="1" stop-color="#4B7BE2"/>
</linearGradient>
<linearGradient id="paint16_linear" x1="64.8119" y1="509.647" x2="289.923" y2="514.343" gradientUnits="userSpaceOnUse">
<stop stop-color="#66A8FF"/>
<stop offset="1" stop-color="#4B7BE2"/>
</linearGradient>
<linearGradient id="paint17_linear" x1="325.991" y1="314.879" x2="320.81" y2="124.531" gradientUnits="userSpaceOnUse">
<stop stop-color="#66A8FF"/>
<stop offset="1" stop-color="#4B7BE2"/>
</linearGradient>
</defs>
</svg>
